<?xml version="1.0" standalone="no"?>
<!DOCTYPE svg PUBLIC "-//W3C//DTD SVG 20010904//EN"
 "http://www.w3.org/TR/2001/REC-SVG-20010904/DTD/svg10.dtd">
<svg version="1.0" xmlns="http://www.w3.org/2000/svg"
 width="85.000000pt" height="141.000000pt" viewBox="0 0 85.000000 141.000000"
 preserveAspectRatio="xMidYMid meet">

<g transform="translate(0.000000,141.000000) scale(0.100000,-0.100000)"
fill="#000000" stroke="none">
<path d="M516 1380 c4 -8 25 -37 47 -64 51 -66 133 -235 152 -316 42 -184 -7
-345 -162 -522 -71 -82 -169 -168 -190 -168 -48 0 -153 183 -173 301 -14 81
-2 138 37 168 31 25 56 26 93 4 36 -21 52 -54 60 -123 l6 -55 18 59 c43 139
-19 262 -148 297 -171 46 -293 -111 -242 -311 17 -67 91 -227 124 -269 l19
-24 -4 54 -5 54 63 -93 c34 -51 60 -95 56 -98 -9 -9 -64 24 -87 53 -36 47 -10
3 95 -160 l100 -155 7 49 c14 89 58 160 210 336 177 206 226 282 247 383 25
122 -30 271 -160 435 -48 60 -179 193 -163 165z m-238 -497 c-10 -2 -26 -2
-35 0 -10 3 -2 5 17 5 19 0 27 -2 18 -5z"/>
</g>
</svg>
